<svg width="141" height="32" viewBox="0 0 141 32" fill="none" xmlns="http://www.w3.org/2000/svg">
<g clip-path="url(#clip0_10411_1804)">
<path d="M140.8 16.8943H82.3279V32.0046H140.8V16.8943Z" fill="#EF4055"/>
<path d="M0 14.9076V0.548584H3.23689V6.36593H12.1152V0.548584H15.3521V14.9076H12.1152V9.40367H3.22302V14.9076H0Z" fill="#414142"/>
<path d="M27.9852 0.594651V6.36129C27.9852 8.07607 28.9101 9.30684 31.0233 9.3852H35.1203V14.9905H38.7456V9.3852H42.3061C43.5963 9.41747 45.0806 8.84126 45.4367 6.41199V0.594651H42.2599L42.357 6.00635L31.3331 6.05244L31.31 0.543945" fill="#414142"/>
<path d="M58.3056 14.7969V0.43335L73.0473 0.461006C74.6704 0.461006 76.2842 2.26337 76.2842 3.8583V6.84073C76.2842 8.41722 74.6704 10.1735 73.0843 10.1827L63.8869 10.2104L63.8592 6.78541H72.4785C72.6811 6.77677 72.8734 6.69391 73.0184 6.5527C73.1635 6.41149 73.2512 6.22188 73.2646 6.02021V4.63733C73.2507 4.43471 73.1672 4.24303 73.0283 4.09447C72.8894 3.94591 72.7034 3.8495 72.5017 3.82142H61.9124V14.7923L58.3056 14.7969Z" fill="#414142"/>
<path d="M108.348 3.76145L95.0258 3.6877C94.5207 3.70016 94.031 3.51354 93.6631 3.16833C93.2952 2.82313 93.0787 2.3472 93.0605 1.84385V1.84385C93.0689 1.59239 93.127 1.34505 93.2316 1.11607C93.3362 0.887096 93.4852 0.680992 93.67 0.509627C93.8548 0.338261 94.0718 0.205014 94.3084 0.117553C94.5451 0.0300912 94.7967 -0.00985958 95.0489 1.52581e-06L108.371 0.0737572C108.876 0.0613193 109.365 0.248085 109.732 0.593409C110.099 0.938733 110.315 1.41466 110.332 1.91761V1.91761C110.314 2.42425 110.095 2.90302 109.723 3.24875C109.351 3.59447 108.856 3.77888 108.348 3.76145V3.76145Z" fill="#EF4055"/>
<path d="M104.168 9.31605L90.8456 9.2423C90.3402 9.25597 89.8498 9.06976 89.4816 8.72431C89.1134 8.37885 88.8973 7.90221 88.8804 7.39845C88.8996 6.8914 89.1197 6.41263 89.4924 6.06703C89.8651 5.72143 90.36 5.53716 90.8687 5.5546L104.191 5.62836C104.696 5.61592 105.185 5.80269 105.552 6.14802C105.919 6.49334 106.135 6.96926 106.151 7.47221V7.47221C106.144 7.72346 106.086 7.9707 105.982 8.19965C105.878 8.4286 105.729 8.63474 105.545 8.80616C105.361 8.97758 105.144 9.1109 104.908 9.19842C104.671 9.28593 104.42 9.32591 104.168 9.31605V9.31605Z" fill="#EF4055"/>
<path d="M108.491 14.8846L95.1599 14.797C94.6552 14.8094 94.1661 14.6227 93.7989 14.2773C93.4317 13.932 93.2162 13.4561 93.1993 12.9531V12.9531C93.2174 12.4465 93.4364 11.9677 93.8084 11.622C94.1804 11.2763 94.6748 11.0919 95.183 11.1093L108.505 11.1876C109.011 11.174 109.501 11.3602 109.869 11.7056C110.237 12.0511 110.453 12.5277 110.47 13.0315V13.0315C110.453 13.5385 110.236 14.0182 109.865 14.3655C109.494 14.7128 109 14.8995 108.491 14.8846V14.8846Z" fill="#EF4055"/>
<path d="M136.897 10.3302C138.483 10.3302 140.134 8.56016 140.097 6.98366V4.00584C140.097 2.41092 138.474 0.617774 136.86 0.608555L122.1 0.594727V14.9583H125.688V10.381H130.387L134.872 15.0736H139.723L135.223 10.3717L136.897 10.3302ZM125.679 3.97358H136.273C136.484 3.99448 136.679 4.09036 136.825 4.24363C136.97 4.3969 137.055 4.59726 137.064 4.80792V6.19081C137.049 6.39242 136.96 6.58153 136.814 6.72189C136.668 6.86225 136.476 6.94397 136.273 6.95139H125.675L125.679 3.97358Z" fill="#414142"/>
<path d="M88.0757 29.543V21.1351H85.1949C85.0571 21.1351 84.9249 21.0808 84.827 20.9841C84.7292 20.8874 84.6736 20.7561 84.6724 20.6188V20.4621C84.6736 20.3243 84.729 20.1925 84.8267 20.0951C84.9245 19.9976 85.0567 19.9424 85.1949 19.9412H92.3438C92.4791 19.9459 92.6073 20.0029 92.7014 20.1001C92.7954 20.1973 92.8479 20.327 92.8478 20.4621V20.6188C92.8478 20.7557 92.7933 20.887 92.6961 20.9838C92.599 21.0807 92.4673 21.1351 92.3299 21.1351H89.093V29.543C89.0918 29.6808 89.0364 29.8126 88.9386 29.91C88.8409 30.0074 88.7087 30.0627 88.5705 30.0639V30.0639C88.4372 30.0557 88.3119 29.9974 88.2201 29.9007C88.1282 29.804 88.0766 29.6762 88.0757 29.543V29.543Z" fill="white"/>
<path d="M101.014 23.532V21.5268C101.014 21.3936 101.067 21.2658 101.162 21.1716C101.256 21.0773 101.384 21.0244 101.518 21.0244H105.546C105.672 21.0124 105.789 20.954 105.874 20.8607C105.959 20.7674 106.006 20.6458 106.006 20.5196C106.006 20.3935 105.959 20.2719 105.874 20.1786C105.789 20.0853 105.672 20.0269 105.546 20.0149H100.459C100.325 20.0149 100.197 20.0678 100.103 20.1621C100.008 20.2563 99.9551 20.3841 99.9551 20.5173V24.1543C99.9544 24.1984 99.9666 24.2417 99.9903 24.279C100.014 24.3162 100.048 24.3457 100.088 24.3638C100.129 24.382 100.174 24.3879 100.217 24.381C100.261 24.3741 100.302 24.3546 100.334 24.3249L100.898 23.827C100.937 23.7884 100.967 23.7423 100.987 23.6915C101.007 23.6408 101.016 23.5865 101.014 23.532V23.532Z" fill="white"/>
<path d="M106.221 29.2711C106.217 29.1391 106.162 29.0136 106.067 28.9215C105.972 28.8294 105.845 28.7778 105.712 28.7779H101.5C101.364 28.7767 101.235 28.7222 101.14 28.6264C101.044 28.5306 100.991 28.4011 100.991 28.2662V25.8969C100.991 25.7746 101.04 25.6574 101.126 25.5709C101.213 25.4845 101.331 25.4359 101.453 25.4359H105.638C105.705 25.4365 105.771 25.424 105.832 25.399C105.894 25.374 105.95 25.3371 105.998 25.2904C106.045 25.2437 106.082 25.1881 106.108 25.1268C106.134 25.0656 106.147 24.9998 106.147 24.9335V24.7998C106.147 24.6653 106.093 24.5363 105.998 24.4412C105.902 24.3462 105.773 24.2927 105.638 24.2927H101.218C101.099 24.292 100.985 24.3365 100.898 24.4172L100.122 25.0994C100.063 25.1512 100.016 25.2151 99.9836 25.2867C99.9517 25.3583 99.9357 25.4359 99.9366 25.5143V29.3172C99.9366 29.4505 99.9897 29.5783 100.084 29.6725C100.179 29.7667 100.307 29.8197 100.441 29.8197H105.712C105.78 29.8197 105.847 29.8063 105.909 29.7802C105.971 29.7542 106.028 29.716 106.075 29.6679C106.123 29.6198 106.16 29.5629 106.185 29.5003C106.21 29.4377 106.222 29.3708 106.221 29.3034V29.2711Z" fill="white"/>
<path d="M121.147 26.7449C121.007 26.7458 120.871 26.7941 120.762 26.8821C120.653 26.97 120.577 27.0923 120.546 27.2289C120.448 27.6699 120.208 28.0666 119.862 28.3583C119.363 28.7534 118.737 28.9549 118.1 28.9253C117.673 28.9418 117.249 28.8563 116.862 28.6759C116.475 28.4954 116.137 28.2253 115.876 27.8881C115.37 27.1272 115.113 26.2285 115.141 25.3159C115.14 25.2654 115.119 25.2173 115.082 25.182C115.046 25.1467 114.997 25.1269 114.947 25.127H114.063C114.037 25.1269 114.011 25.1322 113.986 25.1425C113.962 25.1527 113.94 25.1677 113.921 25.1866C113.903 25.2055 113.888 25.2279 113.878 25.2525C113.869 25.2771 113.864 25.3034 113.864 25.3298C113.846 26.5329 114.232 27.7075 114.96 28.6671C115.689 29.4406 116.677 29.9197 117.737 30.0132C118.797 30.1067 119.855 29.8081 120.708 29.1742C121.23 28.7369 121.596 28.1437 121.753 27.4825C121.773 27.3929 121.772 27.3001 121.75 27.211C121.729 27.1219 121.687 27.0388 121.629 26.9679C121.571 26.8969 121.497 26.8401 121.414 26.8015C121.33 26.7629 121.239 26.7435 121.147 26.7449Z" fill="white"/>
<path d="M114.919 24.6662C114.972 24.6651 115.022 24.644 115.06 24.6072C115.098 24.5704 115.12 24.5206 115.122 24.468C115.093 23.5854 115.354 22.7175 115.867 21.9972C116.352 21.4387 117.029 21.0816 117.765 20.9963C118.501 20.911 119.243 21.1036 119.843 21.5363C120.17 21.7958 120.408 22.1502 120.523 22.5504C120.562 22.7074 120.66 22.8432 120.797 22.9292C120.934 23.0153 121.1 23.0447 121.258 23.0114C121.345 22.9893 121.426 22.9492 121.496 22.8937C121.566 22.8382 121.624 22.7685 121.665 22.6892C121.706 22.6099 121.73 22.5229 121.735 22.4338C121.739 22.3447 121.725 22.2557 121.693 22.1724C121.498 21.6074 121.145 21.1099 120.676 20.7388C119.828 20.0979 118.771 19.7948 117.711 19.8885C116.651 19.9823 115.664 20.4662 114.942 21.2459C114.214 22.1633 113.827 23.3032 113.846 24.4726C113.845 24.5005 113.85 24.5281 113.86 24.5541C113.871 24.5801 113.886 24.6038 113.905 24.6239C113.924 24.644 113.947 24.6602 113.973 24.6714C113.999 24.6826 114.026 24.6887 114.054 24.6893L114.919 24.6662Z" fill="white"/>
<path d="M130.618 26.5423V23.5875V20.6189C130.621 20.4598 130.572 20.304 130.477 20.1757C130.383 20.0473 130.249 19.9536 130.095 19.909C129.99 19.8815 129.881 19.8783 129.775 19.8997C129.669 19.9211 129.569 19.9665 129.483 20.0324C129.397 20.0983 129.328 20.183 129.28 20.2799C129.232 20.3768 129.207 20.4833 129.207 20.5913V29.2205C129.207 29.4067 129.281 29.5854 129.413 29.7176C129.545 29.8497 129.723 29.9245 129.91 29.9258C130.098 29.9258 130.278 29.8514 130.411 29.7192C130.543 29.5869 130.618 29.4075 130.618 29.2205V26.5469V26.5423Z" fill="white"/>
<path d="M136.883 19.8813C136.696 19.8826 136.517 19.9573 136.384 20.0893C136.252 20.2213 136.177 20.3999 136.176 20.5866V23.6428C136.176 23.7447 136.136 23.8425 136.064 23.915C135.992 23.9875 135.894 24.0288 135.792 24.03H131.459C131.359 24.03 131.262 24.0698 131.191 24.1407C131.12 24.2116 131.08 24.3078 131.08 24.408V25.5327H135.681C135.811 25.5327 135.936 25.5842 136.028 25.6759C136.12 25.7675 136.171 25.8918 136.171 26.0214V29.2481C136.172 29.4348 136.247 29.6135 136.38 29.7455C136.512 29.8775 136.691 29.9522 136.879 29.9534V29.9534C137.066 29.9522 137.245 29.8775 137.378 29.7455C137.51 29.6135 137.585 29.4348 137.586 29.2481V20.5866C137.585 20.4007 137.511 20.2227 137.379 20.0909C137.248 19.959 137.07 19.8838 136.883 19.8813V19.8813Z" fill="white"/>
</g>
<defs>
<clipPath id="clip0_10411_1804">
<rect width="140.8" height="32" fill="white"/>
</clipPath>
</defs>
</svg>
