<svg width="21" height="17" viewBox="0 0 21 17" fill="none" xmlns="http://www.w3.org/2000/svg">
<path d="M18.7003 2.55006V1.70016C18.7003 0.765246 17.9351 0 17.0005 0H1.70016C0.765246 0 0 0.765246 0 1.70016V2.55006H18.7003Z" fill="white"/>
<path d="M0.000244141 5.1001V11.9006C0.000244141 12.8351 0.76549 13.6004 1.70041 13.6004H10.2003V12.7505C10.2003 9.47004 12.8699 6.80063 16.1502 6.80063H18.7002V5.10046L0.000244141 5.1001ZM4.25047 11.0499H1.70041V9.35014H4.25047V11.0499ZM8.50033 11.0499H5.95027V9.35014H8.50033V11.0499Z" fill="white"/>
<path d="M16.1503 8.5C13.8037 8.5 11.9004 10.4037 11.9004 12.7502C11.9004 15.0968 13.8037 17.0001 16.1503 17.0001C18.4972 17.0001 20.4005 15.0968 20.4005 12.7502C20.4005 10.4037 18.4972 8.5 16.1503 8.5ZM15.8498 14.6288L13.5961 12.3744L14.4976 11.4729L15.8498 12.8251L17.8036 10.872L18.7051 11.7735L15.8498 14.6288Z" fill="white"/>
</svg>
